<svg width="151" height="28" viewBox="0 0 151 28" fill="none" xmlns="http://www.w3.org/2000/svg">
<path id="memory" fill-rule="evenodd" clip-rule="evenodd" d="M122.52 21V11C122.52 9.42667 122.913 8.29334 123.7 7.6C124.487 6.90667 125.613 6.56 127.08 6.56C127.373 6.56 127.64 6.56667 127.88 6.58C128.12 6.59334 128.4 6.62667 128.72 6.68V0.600003C127.2 0.520003 125.907 0.800003 124.84 1.44C123.773 2.08 122.933 3.2 122.32 4.8L121.24 1.16H116.44V21H122.52ZM6.08 10.64V21H0V1.16H5.32L6.08 3.8C6.53333 3.05334 7.28 2.33334 8.32 1.64C9.36 0.94667 10.6133 0.600003 12.08 0.600003C13.6533 0.600003 14.9133 0.880003 15.86 1.44C16.8067 2 17.5067 2.82667 17.96 3.92C18.7333 2.82667 19.7133 2 20.9 1.44C22.0867 0.880003 23.3733 0.600003 24.76 0.600003C27.2933 0.600003 29.04 1.31334 30 2.74C30.96 4.16667 31.44 6.22667 31.44 8.92V21H25.36V10.44C25.36 9.50667 25.3067 8.65334 25.2 7.88C25.0933 7.10667 24.8267 6.48667 24.4 6.02C23.9733 5.55334 23.2667 5.32 22.28 5.32C21.0533 5.32 20.16 5.75334 19.6 6.62C19.04 7.48667 18.76 8.78667 18.76 10.52V21H12.64V10.44C12.64 9.50667 12.5933 8.65334 12.5 7.88C12.4067 7.10667 12.1533 6.48667 11.74 6.02C11.3267 5.55334 10.64 5.32 9.68 5.32C8.42667 5.32 7.51333 5.77334 6.94 6.68C6.36667 7.58667 6.08 8.90667 6.08 10.64ZM50.06 20.4C48.5 21.12 46.9067 21.48 45.28 21.48C43.1467 21.48 41.26 21.06 39.62 20.22C37.98 19.38 36.7 18.1733 35.78 16.6C34.86 15.0267 34.4 13.1467 34.4 10.96C34.4 8.85334 34.8867 7.02667 35.86 5.48C36.8333 3.93334 38.1267 2.73334 39.74 1.88C41.3533 1.02667 43.12 0.600003 45.04 0.600003C47.2267 0.600003 49.1 1.11334 50.66 2.14C52.22 3.16667 53.4 4.58 54.2 6.38C55 8.18 55.3333 10.2533 55.2 12.6H40.52C40.6267 13.9867 41.14 15.0267 42.06 15.72C42.98 16.4133 44 16.76 45.12 16.76C46.0533 16.76 46.86 16.62 47.54 16.34C48.22 16.06 48.7467 15.7067 49.12 15.28L53.96 17.04C52.92 18.56 51.62 19.68 50.06 20.4ZM40.52 9C40.7067 7.64 41.2467 6.65334 42.14 6.04C43.0333 5.42667 44.0533 5.12 45.2 5.12C46.3733 5.12 47.3867 5.44667 48.24 6.1C49.0933 6.75334 49.5333 7.72 49.56 9H40.52ZM64.16 10.64V21H58.08V1.16H63.4L64.16 3.8C64.6133 3.05334 65.36 2.33334 66.4 1.64C67.44 0.94667 68.6933 0.600003 70.16 0.600003C71.7333 0.600003 72.9933 0.880003 73.94 1.44C74.8867 2 75.5867 2.82667 76.04 3.92C76.8133 2.82667 77.7933 2 78.98 1.44C80.1667 0.880003 81.4533 0.600003 82.84 0.600003C85.3733 0.600003 87.12 1.31334 88.08 2.74C89.04 4.16667 89.52 6.22667 89.52 8.92V21H83.44V10.44C83.44 9.50667 83.3867 8.65334 83.28 7.88C83.1733 7.10667 82.9067 6.48667 82.48 6.02C82.0533 5.55334 81.3467 5.32 80.36 5.32C79.1333 5.32 78.24 5.75334 77.68 6.62C77.12 7.48667 76.84 8.78667 76.84 10.52V21H70.72V10.44C70.72 9.50667 70.6733 8.65334 70.58 7.88C70.4867 7.10667 70.2333 6.48667 69.82 6.02C69.4067 5.55334 68.72 5.32 67.76 5.32C66.5067 5.32 65.5933 5.77334 65.02 6.68C64.4467 7.58667 64.16 8.90667 64.16 10.64ZM103 21.48C104.813 21.48 106.52 21.1067 108.12 20.36C109.72 19.6133 111.013 18.46 112 16.9C112.987 15.34 113.48 13.3733 113.48 11C113.48 8.6 112.987 6.63334 112 5.1C111.013 3.56667 109.72 2.43334 108.12 1.7C106.52 0.96667 104.813 0.600003 103 0.600003C101.16 0.600003 99.44 0.96667 97.84 1.7C96.24 2.43334 94.9467 3.56667 93.96 5.1C92.9733 6.63334 92.48 8.6 92.48 11C92.48 13.3733 92.9733 15.34 93.96 16.9C94.9467 18.46 96.24 19.6133 97.84 20.36C99.44 21.1067 101.16 21.48 103 21.48ZM99.92 15.44C100.747 16.32 101.773 16.76 103 16.76C104.227 16.76 105.247 16.32 106.06 15.44C106.873 14.56 107.28 13.08 107.28 11C107.28 8.89334 106.86 7.42 106.02 6.58C105.18 5.74 104.173 5.32 103 5.32C101.8 5.32 100.78 5.74 99.94 6.58C99.1 7.42 98.68 8.89334 98.68 11C98.68 13.08 99.0933 14.56 99.92 15.44ZM138 26.88C136.987 27.2533 135.613 27.44 133.88 27.44H131.92V23.04H133.12C134.027 23.04 134.707 23 135.16 22.92C135.613 22.84 135.967 22.6467 136.22 22.34C136.473 22.0333 136.707 21.5467 136.92 20.88L129.32 1.16H135.84L139.72 13.56L143.52 1.16H150.04L142.44 21C141.8 22.68 141.153 23.9867 140.5 24.92C139.847 25.8533 139.013 26.5067 138 26.88Z" fill="#152938"/>
</svg>
